{"title":"Zane Grey - America's Pastime - Baseball (96 kbs)","uid":8249646,"size":46493696,"categoryP":"audio","categoryS":"audio_books","magnet":"?xt=urn:btih:ea173dcbaaa17c8e7521e6e054dba3f3b58676ef&amp;dn=Zane+Grey+-+America%27s+Pastime+-+Baseball+%2896+kbs%29+&amp;tr=udp%3A%2F%2Ftracker.openbittorrent.com%3A80&amp;tr=udp%3A%2F%2Fopen.demonii.com%3A1337&amp;tr=udp%3A%2F%2Ftracker.coppersurfer.tk%3A6969&amp;tr=udp%3A%2F%2Fexodus.desync.com%3A6969","seeders":1,"leechers":0,"uploader":"cjbbaugh1","files":2,"time":1363141063,"description":"Written by Zane Grey \nRead by James Mio \nFormat: MP3 \nBitrate: 96 Kbps \n\nBaseball - the crack of the bat, the dry leathery smack of the ball in a fielder's glove, the shouts of the hot dog vendors ringing over the roar of the crowd nothing brings Summer to the life more than a day at the ballpark. The wonderful stones collected here recall those thrilling games of yesteryear, when the bases were loaded, the count was full, and one run would win the game. Stories performed by James Mio. 1) The Red-Headed Outfield - A hilarious story of three unique outfielders, one crazy, one cranky, and one able to move like the wind. Their potential to win ball games is phenomenal, if only their coach could get control of them. Runtime - 35:57 2) Old Well Well - The touching story of a legendary baseball fan, known in ballparks throught the league, who has one last dying wish - to see his nephew, the rising star outfielder play in one game. Runtime 24:40\n \nZane Grey - Old Well Well\n Format : MPEG Audio\n File size : 18.5 MiB\n Duration : 26mn 45s\n Overall bit rate mode : Constant\n Overall bit rate : 96.0 Kbps\n Album : America's Pastime\n Track name : Old Well Well\n Track name/Position : 2\n Performer : Zane Gray\n Genre : Audio Book\n Recorded date : 1910\n Cover : Yes\n Cover MIME : image/jpg\n MusicMatch_TrackArtist : Baseball\n \nAudio\n Format : MPEG Audio\n Format version : Version 1\n Format profile : Layer 3\n Mode : Joint stereo\n Mode extension : Intensity Stereo + MS Stereo\n Duration : 26mn 47s\n Bit rate mode : Constant\n Bit rate : 96.0 Kbps\n Channel(s) : 2 channels\n Sampling rate : 44.1 KHz\n Compression mode : Lossy\n Stream size : 18.4 MiB (99%)\n \nZane Grey - The Red-Headed Outfield\n Format : MPEG Audio\n File size : 25.8 MiB\n Duration : 37mn 13s\n Overall bit rate mode : Constant\n Overall bit rate : 96.0 Kbps\n Album : America's Pastime\n Track name : The Red-Headed Outfield\n Track name/Position : 1\n Performer : Zane Gray\n Genre : Audio Book\n Recorded date : 1910\n Cover : Yes\n Cover MIME : image/jpg\n MusicMatch_TrackArtist : Baseball\n \nAudio\n Format : MPEG Audio\n Format version : Version 1\n Format profile : Layer 3\n Mode : Joint stereo\n Mode extension : Intensity Stereo + MS Stereo\n Duration : 37mn 16s\n Bit rate mode : Constant\n Bit rate : 96.0 Kbps\n Channel(s) : 2 channels\n Sampling rate : 44.1 KHz\n Compression mode : Lossy\n Stream size : 25.6 MiB (99%)\n ","torrent":{"xt":"urn:btih:ea173dcbaaa17c8e7521e6e054dba3f3b58676ef","amp;dn":"Zane+Grey+-+America%27s+Pastime+-+Baseball+%2896+kbs%29+","amp;tr":["udp%3A%2F%2Ftracker.openbittorrent.com%3A80","udp%3A%2F%2Fopen.demonii.com%3A1337","udp%3A%2F%2Ftracker.coppersurfer.tk%3A6969","udp%3A%2F%2Fexodus.desync.com%3A6969"],"infoHash":"ea173dcbaaa17c8e7521e6e054dba3f3b58676ef","infoHashBuffer":{"type":"Buffer","data":[234,23,61,203,170,161,124,142,117,33,230,224,84,219,163,243,181,134,118,239]},"announce":[],"urlList":[]}}